<?xml version="1.0" encoding="UTF-8"?>
<svg version="1.1" xmlns="http://www.w3.org/2000/svg" width="65" height="65">
<path d="M0 0 C9.11344175 8.04127214 14.13315774 19.4267083 14.9921875 31.453125 C15.01451823 38.73294276 13.7081909 44.37745253 8.59765625 49.7265625 C6.4840729 51.41122795 4.68715239 51.92096611 2 52 C2 54.97 2 57.94 2 61 C1.01 61 0.02 61 -1 61 C-1 58.03 -1 55.06 -1 52 C-2.051875 51.9690625 -2.051875 51.9690625 -3.125 51.9375 C-7.52925374 50.5013303 -9.72281522 47.98678296 -12 44 C-15.43459733 33.45623615 -13.50929492 23.49356071 -9.28125 13.5 C-6.84914174 8.75442291 -3.79280809 3.79280809 0 0 Z M0 29 C0 36.59 0 44.18 0 52 C0.33 52 0.66 52 1 52 C1 44.41 1 36.82 1 29 C0.67 29 0.34 29 0 29 Z " fill="#000000" transform="translate(32,2)"/>
</svg>
